<?xml version="1.0" encoding="UTF-8"?> <svg xmlns="http://www.w3.org/2000/svg" width="457" height="309" viewBox="0 0 557 419" fill="none"><path d="M335.046 67.34C335.046 67.34 353.161 56.825 368.141 77.6275C383.12 98.43 376.54 117.445 372.422 135.371C368.36 153.11 366.492 200.216 372.487 218.548C378.482 236.881 353.364 238.985 353.364 238.985C353.364 238.985 298.126 250.524 308.174 168.655C318.223 86.7855 335.046 67.34 335.046 67.34Z" fill="#000D44"></path><path d="M543.766 379.036C536.025 377.671 527.65 355.097 542.06 347.54C556.471 339.983 561.321 335.961 564.351 318.384C567.381 300.808 577.616 309.129 575.301 319.44C572.986 329.752 588.379 328.468 591.596 333.385C597.161 341.909 584.854 343.266 577.787 348.117C570.719 352.968 583.319 356.284 578.315 364.491C573.311 372.698 556.967 381.36 543.766 379.036Z" fill="white"></path><path opacity="0.4" d="M543.766 379.036C536.025 377.671 527.65 355.097 542.06 347.54C556.471 339.983 561.321 335.961 564.351 318.384C567.381 300.808 577.616 309.129 575.301 319.44C572.986 329.752 588.379 328.468 591.596 333.385C597.161 341.909 584.854 343.266 577.787 348.117C570.719 352.968 583.319 356.284 578.315 364.491C573.311 372.698 556.967 381.36 543.766 379.036Z" fill="#5468FF"></path><path d="M550.964 366.027C554.021 364.968 557.134 364.081 560.289 363.37C563.436 362.616 566.623 362.041 569.834 361.647C566.778 362.705 563.665 363.589 560.509 364.296C557.362 365.05 554.175 365.628 550.964 366.027V366.027Z" fill="white"></path><path d="M563.758 346.013C562.662 347.508 561.573 349.003 560.509 350.522C559.957 351.335 559.437 352.091 558.884 352.871C559.144 351.402 559.299 349.917 559.347 348.426C559.437 346.523 559.325 344.617 559.014 342.738C558.579 344.587 558.339 346.478 558.299 348.377C558.236 350.047 558.315 351.719 558.535 353.375C557.105 355.482 555.703 357.608 554.327 359.754C552.345 362.882 550.387 366.027 548.511 369.22L545.708 374.015L542.971 378.85C545.172 375.859 547.154 372.739 549.193 369.651C551.232 366.563 553.206 363.435 555.204 360.322L561.159 350.969C562.142 349.401 563.149 347.857 564.164 346.305L565.667 343.973C566.209 343.209 566.718 342.437 567.194 341.657C566 343.03 564.871 344.509 563.758 346.013Z" fill="white"></path><path d="M546.179 390.348C546.179 390.348 541.833 381.864 549.249 376.428C556.666 370.992 559.948 364.003 555.748 357.584C551.548 351.164 540.655 355.146 536.065 352.099C531.475 349.051 533.449 342.461 529.68 335.351C524.636 325.827 514.871 328.346 512.621 329.809C510.371 331.272 506.285 335.774 511.59 344.436C516.894 353.098 512.987 356.105 508.763 362.882C504.539 369.659 511.939 372.3 523.937 374.591C535.935 376.883 538.015 391.656 538.015 391.656L546.252 390.396" fill="white"></path><path opacity="0.3" d="M546.179 390.348C546.179 390.348 541.833 381.864 549.249 376.428C556.666 370.992 559.948 364.003 555.748 357.584C551.548 351.164 540.655 355.146 536.065 352.099C531.475 349.051 533.449 342.461 529.68 335.351C524.636 325.827 514.871 328.346 512.621 329.809C510.371 331.272 506.285 335.774 511.59 344.436C516.894 353.098 512.987 356.105 508.763 362.882C504.539 369.659 511.939 372.3 523.937 374.591C535.935 376.883 538.015 391.656 538.015 391.656L546.252 390.396" fill="#5468FF"></path><path d="M547.455 359.396C546.536 359.752 545.659 360.207 544.839 360.753C544.415 361.013 544.01 361.304 543.628 361.622L542.532 362.654C542.189 363.023 541.871 363.413 541.581 363.825C541.435 364.028 541.265 364.223 541.135 364.434L540.761 365.092C539.806 366.845 539.251 368.787 539.136 370.78C539.136 370.886 539.136 370.992 539.136 371.097C538.543 369.301 537.893 367.53 537.17 365.783C535.054 360.536 532.414 355.516 529.291 350.799C527.812 348.361 526.041 346.191 524.344 343.94C523.531 342.803 522.508 341.803 521.582 340.747C520.656 339.69 519.697 338.658 518.739 337.634C522.243 342.005 525.461 346.598 528.373 351.384L529.437 353.188C529.786 353.789 530.184 354.366 530.485 355L532.418 358.713C533.101 359.932 533.62 361.224 534.214 362.492C534.807 363.76 535.4 365.011 535.838 366.327L537.357 370.22V370.325C536.271 368.914 534.962 367.69 533.482 366.701C531.669 365.482 529.687 364.532 527.601 363.881C525.511 363.269 523.352 362.925 521.176 362.858C520.092 362.828 519.007 362.858 517.926 362.947C516.854 363.077 515.798 363.256 514.75 363.467C515.822 363.564 516.886 363.573 517.942 363.638L519.518 363.784C520.041 363.814 520.561 363.871 521.078 363.955C521.598 364.036 522.11 364.109 522.63 364.174C523.15 364.239 523.653 364.377 524.157 364.475C525.18 364.645 526.171 364.962 527.171 365.222C529.141 365.847 531.046 366.664 532.857 367.66C534.514 368.571 536.067 369.661 537.487 370.91L538.592 374.25C539.421 376.91 540.152 379.6 540.785 382.319C541.443 385.033 541.914 387.788 542.312 390.559C542.717 393.333 542.964 396.127 543.052 398.929C543.238 396.117 543.222 393.295 543.003 390.486C542.735 387.682 542.377 384.879 541.849 382.1C541.321 379.321 540.639 376.46 539.827 373.698C539.88 372.788 539.983 371.882 540.135 370.984C540.439 369.179 541.049 367.439 541.939 365.84C542.813 364.238 544.001 362.828 545.432 361.695C546.146 361.099 546.904 360.556 547.698 360.07C548.511 359.566 549.363 359.193 550.2 358.681C549.271 358.86 548.353 359.099 547.455 359.396V359.396Z" fill="white"></path><path d="M572.173 385.968C585.918 389.446 586.251 377.46 577.86 370.78C572.596 366.604 583.343 364.377 587.502 360.314C594.659 353.334 583.181 344.566 577.234 350.677C571.288 356.787 567.592 358.665 563.262 359.201C558.933 359.737 546.699 359.867 547.747 367.652C548.405 372.528 544.213 376.647 544.782 381.507C557.478 377.2 565.009 384.156 572.173 385.968Z" fill="white"></path><path opacity="0.45" d="M572.173 385.968C585.918 389.446 586.251 377.46 577.86 370.78C572.596 366.604 583.343 364.377 587.502 360.314C594.659 353.334 583.181 344.566 577.234 350.677C571.288 356.787 567.592 358.665 563.262 359.201C558.933 359.737 546.699 359.867 547.747 367.652C548.405 372.528 544.213 376.647 544.782 381.507C557.478 377.2 565.009 384.156 572.173 385.968Z" fill="#5468FF"></path><path d="M564.879 373.543C563.255 373.543 561.63 373.543 560.005 373.673C558.835 373.738 557.666 373.852 556.496 373.998L561.443 370.805C564.213 369.017 567.008 367.27 569.794 365.523C572.58 363.776 575.415 362.086 578.266 360.395C575.188 361.625 572.185 363.036 569.274 364.621C566.358 366.197 563.523 367.871 560.72 369.683C560.257 369.984 559.794 370.301 559.331 370.61C559.518 370.106 559.688 369.602 559.826 369.098C560.069 368.235 560.261 367.359 560.403 366.474C560.55 365.589 560.645 364.696 560.688 363.8C560.748 362.89 560.721 361.975 560.606 361.07C560.21 361.893 559.895 362.753 559.664 363.638C559.421 364.501 559.228 365.377 559.087 366.262C558.941 367.147 558.847 368.04 558.803 368.936C558.761 369.607 558.761 370.28 558.803 370.951C553.89 374.165 549.191 377.694 544.733 381.515C547.536 379.751 550.33 377.988 553.092 376.184L555.992 374.315C557.319 374.505 558.646 374.64 559.973 374.721C561.597 374.835 563.222 374.868 564.847 374.884C566.471 374.9 568.096 374.884 569.721 374.754C571.353 374.675 572.98 374.506 574.595 374.25C572.981 373.983 571.354 373.804 569.721 373.714C568.137 373.592 566.512 373.559 564.879 373.543Z" fill="white"></path><path d="M559.396 403.894H539.283L534.596 383.782H564.083L559.396 403.894Z" fill="#5468FF"></path><path opacity="0.3" d="M559.396 403.894H539.283L534.596 383.782H564.083L559.396 403.894Z" fill="#000D44"></path><path d="M567.235 378.663H531.452V386.756H567.235V378.663Z" fill="#5468FF"></path><path d="M199.972 337.285L209.379 382.75H221.328C221.328 382.75 260.767 346.289 264.382 332.54L275.048 227.942C275.048 227.942 250.905 234.808 219.809 295.778L199.972 337.285Z" fill="#5468FF"></path><path opacity="0.05" d="M199.972 337.285L209.379 382.75H221.328C221.328 382.75 260.767 346.289 264.382 332.54L275.048 227.942C275.048 227.942 250.905 234.808 219.809 295.778L199.972 337.285Z" fill="#000D44"></path><path d="M487.634 356.974C487.309 356.254 486.981 355.536 486.651 354.821C476.318 332.393 464.149 310.876 451.842 289.464C441.623 271.684 431.031 253.628 415.661 240.058C398.602 225.017 376.458 216.371 353.867 213.892C337.807 212.129 321.52 213.38 305.753 216.769C298.816 218.349 291.988 220.38 285.315 222.847C278.499 225.285 273.373 227.341 269.109 233.655C265.12 239.57 263.065 246.526 260.579 253.214C255.705 266.321 248.955 278.721 244.698 292.048C240.441 305.374 238.833 320.245 244.292 333.125C246.997 339.504 251.302 345.094 254.129 351.416C260.831 366.409 258.589 383.701 256.209 399.953L332.925 380.45C335.045 379.914 337.247 379.37 339.424 379.711C343.144 380.304 346.036 383.473 347.385 387.024C348.733 390.575 348.814 394.403 348.879 398.165L462.2 398.775C471.038 398.823 480.883 398.49 487.179 392.274C491.931 387.593 493.531 380.41 492.865 373.771C492.215 367.904 490.055 362.362 487.634 356.974ZM397.311 364.515L404.484 319.684L431.973 359.136L397.311 364.515Z" fill="#5468FF"></path><path d="M404.476 319.684L397.303 364.515C397.303 364.515 385.354 367.506 373.404 369.895C361.455 372.284 333.966 372.885 333.966 380.06L256.364 399.928H256.299L256.38 399.774C258.744 395.345 272.034 364.41 310.067 366.913C355.484 369.903 387.75 348.979 391.3 343.599C394.85 338.22 404.476 319.684 404.476 319.684Z" fill="#5468FF"></path><path opacity="0.05" d="M404.476 319.684L397.303 364.515C397.303 364.515 385.354 367.506 373.404 369.895C361.455 372.284 333.966 372.885 333.966 380.06L256.364 399.928H256.299L256.38 399.774C258.744 395.345 272.034 364.41 310.067 366.913C355.484 369.903 387.75 348.979 391.3 343.599C394.85 338.22 404.476 319.684 404.476 319.684Z" fill="#000D44"></path><path d="M264.488 398.019C264.488 398.019 273.83 383.181 282.489 381.978C283.153 381.898 283.764 381.574 284.203 381.068C286.023 378.915 292.026 373.519 305.056 375.932C305.056 375.932 322.448 376.924 328.662 380.28C329.158 380.542 329.705 380.695 330.265 380.731C330.825 380.766 331.386 380.681 331.911 380.483C335.217 379.232 342.187 377.623 346.184 384.286C348.602 388.435 349.656 393.238 349.198 398.019L263.684 399.644L264.488 398.019Z" fill="#F5B58F"></path><path d="M479.544 357.031V343.94H438.716V393.143C438.716 395.238 439.548 397.247 441.028 398.728C442.509 400.21 444.518 401.042 446.612 401.042H471.656C473.75 401.042 475.758 400.21 477.239 398.728C478.72 397.247 479.552 395.238 479.552 393.143V384.286C483.162 384.286 486.623 382.851 489.176 380.298C491.728 377.745 493.162 374.282 493.162 370.671C493.162 367.06 491.728 363.597 489.176 361.043C486.623 358.49 483.162 357.056 479.552 357.056L479.544 357.031ZM479.544 379.784V361.501C481.967 361.501 484.292 362.464 486.006 364.178C487.72 365.893 488.682 368.218 488.682 370.642C488.682 373.067 487.72 375.392 486.006 377.107C484.292 378.821 481.967 379.784 479.544 379.784V379.784Z" fill="white"></path><path opacity="0.3" d="M479.544 357.031V343.94H438.716V393.143C438.716 395.238 439.548 397.247 441.028 398.728C442.509 400.21 444.518 401.042 446.612 401.042H471.656C473.75 401.042 475.758 400.21 477.239 398.728C478.72 397.247 479.552 395.238 479.552 393.143V384.286C483.162 384.286 486.623 382.851 489.176 380.298C491.728 377.745 493.162 374.282 493.162 370.671C493.162 367.06 491.728 363.597 489.176 361.043C486.623 358.49 483.162 357.056 479.552 357.056L479.544 357.031ZM479.544 379.784V361.501C481.967 361.501 484.292 362.464 486.006 364.178C487.72 365.893 488.682 368.218 488.682 370.642C488.682 373.067 487.72 375.392 486.006 377.107C484.292 378.821 481.967 379.784 479.544 379.784V379.784Z" fill="#5468FF"></path><path d="M450.657 352.456H449.707C448.374 352.456 447.294 353.537 447.294 354.87V374.535C447.294 375.867 448.374 376.948 449.707 376.948H450.657C451.989 376.948 453.07 375.867 453.07 374.535V354.87C453.07 353.537 451.989 352.456 450.657 352.456Z" fill="white"></path><path opacity="0.4" d="M450.657 352.456H449.707C448.374 352.456 447.294 353.537 447.294 354.87V374.535C447.294 375.867 448.374 376.948 449.707 376.948H450.657C451.989 376.948 453.07 375.867 453.07 374.535V354.87C453.07 353.537 451.989 352.456 450.657 352.456Z" fill="#5468FF"></path><path d="M291.733 390.072H120.095C117.695 390.072 115.75 392.018 115.75 394.419V395.581C115.75 397.982 117.695 399.928 120.095 399.928H291.733C294.133 399.928 296.079 397.982 296.079 395.581V394.419C296.079 392.018 294.133 390.072 291.733 390.072Z" fill="#5468FF"></path><path opacity="0.35" d="M291.733 390.072H120.095C117.695 390.072 115.75 392.018 115.75 394.419V395.581C115.75 397.982 117.695 399.928 120.095 399.928H291.733C294.133 399.928 296.079 397.982 296.079 395.581V394.419C296.079 392.018 294.133 390.072 291.733 390.072Z" fill="#000D44"></path><path d="M212.392 399.928H53.8658C51.7633 399.928 49.7117 399.281 47.9896 398.074C46.2675 396.868 44.9583 395.16 44.2396 393.184L14.0534 291.568C13.4937 290.021 13.3148 288.361 13.532 286.73C13.7492 285.098 14.356 283.543 15.3011 282.196C16.2462 280.849 17.5017 279.749 18.9615 278.99C20.4213 278.231 22.0424 277.835 23.6877 277.835H182.214C184.317 277.836 186.368 278.483 188.09 279.689C189.812 280.896 191.122 282.603 191.84 284.58L222.018 386.155C222.586 387.704 222.771 389.367 222.559 391.004C222.346 392.64 221.741 394.2 220.796 395.553C219.851 396.905 218.593 398.009 217.13 398.771C215.667 399.533 214.042 399.93 212.392 399.928V399.928Z" fill="#5468FF"></path><path opacity="0.3" d="M212.392 399.928H53.8658C51.7633 399.928 49.7117 399.281 47.9896 398.074C46.2675 396.868 44.9583 395.16 44.2396 393.184L14.0534 291.568C13.4937 290.021 13.3148 288.361 13.532 286.73C13.7492 285.098 14.356 283.543 15.3011 282.196C16.2462 280.849 17.5017 279.749 18.9615 278.99C20.4213 278.231 22.0424 277.835 23.6877 277.835H182.214C184.317 277.836 186.368 278.483 188.09 279.689C189.812 280.896 191.122 282.603 191.84 284.58L222.018 386.155C222.586 387.704 222.771 389.367 222.559 391.004C222.346 392.64 221.741 394.2 220.796 395.553C219.851 396.905 218.593 398.009 217.13 398.771C215.667 399.533 214.042 399.93 212.392 399.928V399.928Z" fill="#000D44"></path><path d="M20.0322 278.51C20.6252 338.553 94.2306 387.114 193.335 387.114C203.083 387.114 212.579 386.642 221.88 385.74L191.824 284.572C191.105 282.595 189.796 280.888 188.074 279.681C186.352 278.475 184.3 277.827 182.198 277.827H23.6877C22.4378 277.83 21.1988 278.061 20.0322 278.51V278.51Z" fill="#5468FF"></path><path opacity="0.35" d="M20.0322 278.51C20.6252 338.553 94.2306 387.114 193.335 387.114C203.083 387.114 212.579 386.642 221.88 385.74L191.824 284.572C191.105 282.595 189.796 280.888 188.074 279.681C186.352 278.475 184.3 277.827 182.198 277.827H23.6877C22.4378 277.83 21.1988 278.061 20.0322 278.51V278.51Z" fill="#000D44"></path><path d="M112.272 348.865C118.898 348.865 124.27 343.491 124.27 336.863C124.27 330.234 118.898 324.861 112.272 324.861C105.646 324.861 100.274 330.234 100.274 336.863C100.274 343.491 105.646 348.865 112.272 348.865Z" fill="white"></path><path opacity="0.3" d="M112.272 348.865C118.898 348.865 124.27 343.491 124.27 336.863C124.27 330.234 118.898 324.861 112.272 324.861C105.646 324.861 100.274 330.234 100.274 336.863C100.274 343.491 105.646 348.865 112.272 348.865Z" fill="#5468FF"></path><path d="M559.363 398.579H8.52948C3.81878 398.579 0 402.399 0 407.112V410.468C0 415.18 3.81878 419 8.52948 419H559.363C564.074 419 567.893 415.18 567.893 410.468V407.112C567.893 402.399 564.074 398.579 559.363 398.579Z" fill="#5468FF"></path><path opacity="0.1" d="M559.363 398.579H8.52948C3.81878 398.579 0 402.399 0 407.112V410.468C0 415.18 3.81878 419 8.52948 419H559.363C564.074 419 567.893 415.18 567.893 410.468V407.112C567.893 402.399 564.074 398.579 559.363 398.579Z" fill="#000D44"></path><path d="M424.491 115.235V140.092L459.779 115.235H554.286C556.242 115.235 558.118 114.457 559.501 113.073C560.884 111.69 561.662 109.813 561.662 107.856V26.6614C561.662 24.7045 560.884 22.8278 559.501 21.444C558.118 20.0603 556.242 19.283 554.286 19.283H411.486C409.53 19.283 407.654 20.0603 406.27 21.444C404.887 22.8278 404.11 24.7045 404.11 26.6614V107.864C404.11 108.833 404.301 109.793 404.671 110.688C405.042 111.583 405.585 112.396 406.27 113.082C406.955 113.767 407.768 114.31 408.663 114.681C409.558 115.052 410.517 115.243 411.486 115.243L424.491 115.235Z" fill="white"></path><path opacity="0.3" d="M424.491 115.235V140.092L459.779 115.235H554.286C556.242 115.235 558.118 114.457 559.501 113.073C560.884 111.69 561.662 109.813 561.662 107.856V26.6614C561.662 24.7045 560.884 22.8278 559.501 21.444C558.118 20.0603 556.242 19.283 554.286 19.283H411.486C409.53 19.283 407.654 20.0603 406.27 21.444C404.887 22.8278 404.11 24.7045 404.11 26.6614V107.864C404.11 108.833 404.301 109.793 404.671 110.688C405.042 111.583 405.585 112.396 406.27 113.082C406.955 113.767 407.768 114.31 408.663 114.681C409.558 115.052 410.517 115.243 411.486 115.243L424.491 115.235Z" fill="#5468FF"></path><path d="M452.322 41.1581H427.969V49.6091H452.322V41.1581Z" fill="white"></path><path d="M506.497 61.0424H427.969V69.4934H506.497V61.0424Z" fill="white"></path><path d="M482.639 77.9444H427.969V86.3954H482.639V77.9444Z" fill="white"></path><path d="M537.805 61.0424H512.46V69.4934H537.805V61.0424Z" fill="white"></path><path d="M537.804 41.1581H457.789V49.6091H537.804V41.1581Z" fill="white"></path><path d="M246.137 0H208.769C201.335 0.0128519 194.208 2.97019 188.947 8.22528C183.686 13.4804 180.719 20.6056 180.695 28.0428V28.0428C180.707 32.2688 181.674 36.4375 183.524 40.237C185.374 44.0364 188.059 47.3681 191.377 49.9829V72.0775L214.269 56.053H246.137C253.556 56.0252 260.664 53.0657 265.912 47.8193C271.159 42.5728 274.122 35.4645 274.154 28.0428V28.0428C274.13 20.6154 271.172 13.4988 265.923 8.24529C260.674 2.99181 253.562 0.0278529 246.137 0V0Z" fill="white"></path><path opacity="0.3" d="M246.137 0H208.769C201.335 0.0128519 194.208 2.97019 188.947 8.22528C183.686 13.4804 180.719 20.6056 180.695 28.0428V28.0428C180.707 32.2688 181.674 36.4375 183.524 40.237C185.374 44.0364 188.059 47.3681 191.377 49.9829V72.0775L214.269 56.053H246.137C253.556 56.0252 260.664 53.0657 265.912 47.8193C271.159 42.5728 274.122 35.4645 274.154 28.0428V28.0428C274.13 20.6154 271.172 13.4988 265.923 8.24529C260.674 2.99181 253.562 0.0278529 246.137 0V0Z" fill="#5468FF"></path><path d="M196.941 110.408H105.7C104.343 110.408 103.041 110.947 102.081 111.907C101.122 112.867 100.583 114.169 100.583 115.527V173.847C100.583 175.205 101.122 176.507 102.081 177.467C103.041 178.427 104.343 178.967 105.7 178.967H134.944L153.075 201.224L169.558 178.967H196.909C198.266 178.967 199.568 178.427 200.528 177.467C201.487 176.507 202.026 175.205 202.026 173.847V115.527C202.026 114.175 201.492 112.878 200.539 111.919C199.586 110.959 198.293 110.416 196.941 110.408V110.408Z" fill="white"></path><path opacity="0.3" d="M196.941 110.408H105.7C104.343 110.408 103.041 110.947 102.081 111.907C101.122 112.867 100.583 114.169 100.583 115.527V173.847C100.583 175.205 101.122 176.507 102.081 177.467C103.041 178.427 104.343 178.967 105.7 178.967H134.944L153.075 201.224L169.558 178.967H196.909C198.266 178.967 199.568 178.427 200.528 177.467C201.487 176.507 202.026 175.205 202.026 173.847V115.527C202.026 114.175 201.492 112.878 200.539 111.919C199.586 110.959 198.293 110.416 196.941 110.408V110.408Z" fill="#5468FF"></path><path d="M148.202 129.553H135.741C133.263 129.559 130.888 130.547 129.136 132.299C127.384 134.052 126.397 136.427 126.391 138.906V138.906C126.394 140.314 126.716 141.703 127.333 142.97C127.949 144.236 128.843 145.347 129.949 146.219V153.581L137.576 148.242H148.194C150.671 148.236 153.046 147.248 154.798 145.496C156.55 143.743 157.537 141.368 157.544 138.889V138.889C157.533 136.415 156.545 134.045 154.795 132.296C153.045 130.547 150.675 129.561 148.202 129.553V129.553Z" fill="white"></path><path d="M163.661 146.186C164.907 146.924 166.323 147.327 167.771 147.357C171.02 147.357 171.995 145.301 171.963 143.765C171.963 141.165 169.591 140.051 167.17 140.051H165.773V138.166H167.17C168.998 138.166 171.305 137.223 171.305 135.029C171.305 133.542 170.362 132.234 168.055 132.234C166.725 132.272 165.434 132.699 164.343 133.461L163.685 131.633C165.134 130.688 166.829 130.191 168.559 130.203C172.214 130.203 173.863 132.372 173.863 134.623C173.863 136.533 172.718 138.166 170.435 138.987V139.044C171.578 139.219 172.621 139.795 173.379 140.669C174.136 141.542 174.558 142.657 174.57 143.814C174.57 146.78 172.255 149.38 167.812 149.38C166.12 149.404 164.453 148.971 162.986 148.128L163.661 146.186Z" fill="white"></path><path d="M297.435 185.833C297.435 185.833 299.799 222.977 298.426 234.971C298.426 234.971 334.689 264.436 358.717 224.407C358.717 224.407 344.477 193.244 343.762 168.127C342.999 141.449 297.435 185.833 297.435 185.833Z" fill="#EFAB89"></path><path d="M302.098 194.739C295.559 194.203 277.355 191.245 270.214 148.681C261.49 96.6749 287.046 71.0618 308.134 67.0394C329.222 63.0171 348.133 71.1024 357.613 98.5357C357.613 98.5357 364.485 119.875 350.14 156.693C335.794 193.512 309.101 195.308 302.098 194.739Z" fill="#F5B58F"></path><path d="M323.056 101.177C323.056 101.177 296.915 102.664 269.125 140.636C269.125 140.636 257.086 92.0024 289.913 71.9394C322.739 51.8763 344.209 71.3543 351.569 81.1055C351.569 81.1055 362.608 84.169 362.007 105.345C361.406 126.522 375.476 156.352 343.583 170.101C343.583 170.101 346.37 148.819 343.868 143.172C341.366 137.524 331.667 140.783 323.056 101.177Z" fill="#000D44"></path><path d="M296.696 68.2501C303.199 67.3543 309.812 67.6878 316.192 69.2334C337.784 74.4096 352.861 91.9292 354.371 111.375C357.621 111.643 360.448 113.561 362.495 116.527C364.952 120.275 366.127 124.721 365.842 129.195C365.735 131.961 365.116 134.684 364.014 137.223C361.65 142.603 357.296 146.162 352.471 145.91C351.487 145.865 350.516 145.664 349.595 145.317C349.008 148.344 348.138 151.31 346.995 154.174C346.169 156.239 345.166 158.229 343.998 160.122C339.376 167.574 331.236 174.701 316.89 175.806C316.89 175.903 316.89 176.001 316.89 176.098C316.85 176.978 316.463 177.807 315.812 178.401C315.162 178.995 314.302 179.307 313.422 179.267L307.735 179.015C306.868 178.959 306.057 178.564 305.477 177.916C304.896 177.268 304.594 176.418 304.633 175.549C304.672 174.679 305.051 173.86 305.687 173.267C306.323 172.674 307.167 172.354 308.036 172.376L313.722 172.628C314.41 172.661 315.07 172.907 315.612 173.332C316.154 173.757 316.549 174.341 316.744 175.001C329.376 174.05 338.58 168.427 344.169 158.245C344.943 156.836 345.632 155.382 346.232 153.89C347.382 151.017 348.253 148.04 348.831 145C343.754 142.619 340.286 135.858 340.635 128.057C340.96 120.793 344.51 114.723 349.246 112.374C343.454 96.0004 328.872 82.4625 309.579 77.8388C300.576 75.6399 291.175 75.6399 282.171 77.8388L296.696 68.2501Z" fill="#5468FF"></path><path d="M252.789 11.5714H200.272V16.0245H252.789V11.5714Z" fill="white"></path><path d="M252.789 24.4836H200.272V28.9366H252.789V24.4836Z" fill="white"></path><path d="M252.789 37.3958H200.272V41.8489H252.789V37.3958Z" fill="white"></path></svg> 